<?xml version="1.0" standalone="no"?>
<!DOCTYPE svg PUBLIC "-//W3C//DTD SVG 20010904//EN"
 "http://www.w3.org/TR/2001/REC-SVG-20010904/DTD/svg10.dtd">
<svg version="1.0" xmlns="http://www.w3.org/2000/svg"
 width="1088.000000pt" height="1088.000000pt" viewBox="0 0 1088.000000 1088.000000"
 preserveAspectRatio="xMidYMid meet">
<metadata>
Created by potrace 1.11, written by Peter Selinger 2001-2013
</metadata>
<g transform="translate(0.000000,1088.000000) scale(0.100000,-0.100000)"
fill="#000000" stroke="none">
<path d="M10 8730 l0 -1200 323 -392 c310 -377 1176 -1430 3032 -3688 1872
-2278 2048 -2491 2055 -2488 4 2 1234 1463 2734 3248 l2726 3245 0 1238 0
1237 -5435 0 -5435 0 0 -1200z m10480 1005 c0 -3 -93 -114 -208 -248 -114
-133 -585 -684 -1045 -1224 l-838 -981 -52 -7 c-66 -9 -219 -47 -322 -80 -105
-34 -302 -115 -582 -239 -209 -93 -424 -165 -576 -193 -60 -11 -146 -17 -247
-17 -238 -1 -378 36 -475 125 -66 61 -94 106 -155 244 -88 199 -119 228 -310
284 -58 17 -159 58 -225 91 -151 75 -228 90 -367 71 -52 -7 -113 -22 -138 -34
-56 -27 -127 -97 -210 -207 -124 -163 -197 -216 -315 -227 -52 -5 -71 -2 -107
15 -56 28 -81 61 -174 229 -137 247 -233 375 -403 538 -261 251 -490 365 -732
365 -276 0 -546 -178 -756 -499 -31 -48 -60 -90 -64 -95 -9 -10 22 -46 -504
579 -241 286 -623 740 -849 1009 -226 268 -412 492 -414 497 -2 5 2077 9 5032
9 2770 0 5036 -2 5036 -5z m-9510 -1320 c121 -48 218 -134 355 -315 40 -53 96
-117 124 -143 l52 -46 -132 -168 c-72 -92 -136 -172 -140 -178 -6 -6 -18 -1
-31 13 -22 22 -22 22 -4 69 83 214 51 371 -89 446 -33 18 -57 22 -135 22 -86
0 -101 -3 -155 -30 -88 -44 -190 -151 -240 -250 -39 -78 -40 -83 -40 -185 0
-90 4 -112 24 -152 28 -57 90 -122 142 -149 61 -31 168 -45 231 -31 47 11 54
11 65 -5 7 -9 13 -20 13 -24 0 -8 -289 -127 -328 -135 -24 -5 -32 0 -54 33
-14 21 -74 88 -134 150 -123 125 -173 201 -210 318 -69 214 1 455 182 626 122
115 234 162 374 155 48 -2 104 -11 130 -21z m8708 -234 c23 -57 34 -63 214
-137 353 -144 666 -235 753 -218 21 4 35 1 44 -9 10 -13 -16 -49 -161 -226
-130 -158 -178 -210 -193 -208 -18 2 -20 8 -17 54 2 28 -2 61 -8 72 -39 74
-233 68 -365 -11 -66 -40 -95 -67 -95 -90 0 -25 125 -223 157 -248 30 -24 45
-25 82 -6 34 18 56 7 48 -25 -4 -13 -41 -65 -84 -115 -43 -50 -129 -153 -192
-228 -103 -125 -115 -136 -129 -122 -14 14 -14 21 -3 52 12 34 11 38 -17 78
-57 78 -32 76 -510 56 -232 -9 -424 -19 -427 -22 -6 -5 320 -274 474 -391 124
-94 114 -91 209 -71 26 5 32 3 32 -11 0 -19 -180 -244 -195 -244 -22 -2 -35
24 -35 66 0 40 -5 48 -49 89 -90 83 -414 345 -521 421 -137 98 -154 107 -181
92 -17 -9 -25 -8 -37 4 -14 14 -14 18 1 39 48 70 365 443 378 443 8 0 23 -19
33 -42 l19 -43 146 1 c80 1 158 4 174 8 26 6 25 8 -51 68 -123 97 -144 107
-187 92 -30 -11 -37 -11 -50 2 -13 13 -8 23 45 89 33 41 78 95 100 120 37 42
41 44 54 27 9 -12 12 -31 9 -53 -7 -44 4 -57 222 -243 255 -219 464 -371 509
-371 43 0 4 119 -113 345 -157 303 -320 530 -398 556 -18 6 -33 17 -33 25 0
18 301 384 316 384 6 0 21 -22 32 -49z m-6627 -187 c236 -45 539 -178 722
-318 20 -15 37 -32 37 -36 0 -10 -181 -47 -290 -60 -102 -11 -679 -35 -686
-27 -3 3 -10 35 -15 72 -25 178 -78 158 -87 -32 l-5 -102 -46 6 c-121 15 -191
77 -191 169 0 132 133 275 305 330 55 18 157 17 256 -2z m-1299 -431 c83 -87
276 -328 271 -340 -6 -15 -32 -17 -66 -4 -30 12 -56 -3 -182 -102 -164 -130
-522 -436 -538 -460 -9 -14 -17 -46 -19 -72 -2 -27 -8 -50 -14 -52 -10 -3
-290 320 -318 366 -15 25 18 40 63 28 37 -10 41 -9 102 38 172 131 393 319
527 449 82 80 118 128 107 145 -8 13 5 41 19 41 7 0 28 -17 48 -37z m2059
-112 c170 -107 251 -563 174 -968 -17 -86 -67 -215 -102 -261 -47 -63 -77 -74
-178 -69 -273 14 -425 181 -425 467 0 271 137 611 314 778 92 87 144 100 217
53z m-826 -36 c75 -13 192 -99 210 -155 10 -31 -24 -88 -71 -121 -53 -36 -272
-159 -284 -159 -16 0 -72 80 -91 130 -24 64 -24 152 0 205 20 45 70 92 104
100 12 2 31 6 42 8 11 3 27 3 35 2 8 -2 33 -6 55 -10z m2285 -15 c19 -5 70
-30 112 -54 95 -54 118 -62 240 -86 109 -21 148 -38 172 -74 23 -36 21 -44
-28 -160 -183 -427 -280 -824 -232 -941 18 -42 11 -44 -73 -17 -227 71 -228
377 -4 895 30 70 53 130 51 133 -9 8 -84 -53 -124 -102 -158 -189 -261 -467
-224 -603 7 -26 26 -59 46 -79 41 -41 38 -50 -38 -114 -115 -97 -246 -168
-366 -199 -137 -35 -243 -19 -320 47 -86 73 -101 147 -82 388 7 86 10 159 8
162 -3 3 -23 -29 -43 -70 -38 -78 -95 -139 -122 -134 -9 2 -25 16 -37 31 -19
26 -21 42 -21 155 0 149 15 201 77 268 41 45 84 64 258 119 175 54 212 79 365
240 132 140 163 165 230 192 37 14 109 16 155 3z m2909 -299 c-208 -287 -367
-499 -438 -581 -91 -107 -200 -202 -271 -238 -53 -26 -62 -27 -235 -30 -276
-4 -329 -19 -473 -134 -145 -116 -263 -181 -567 -310 -77 -33 -175 -75 -218
-94 -43 -20 -84 -33 -91 -31 -26 10 -95 127 -101 172 -18 113 102 197 375 261
58 14 182 41 275 60 174 36 302 73 339 99 11 8 29 15 39 15 25 0 129 54 214
111 40 27 204 144 365 261 474 343 662 455 772 457 26 1 27 -1 15 -18z m-5944
-96 c60 -103 446 -563 519 -619 l35 -27 -117 -149 c-69 -88 -123 -148 -132
-147 -25 4 -23 56 4 117 34 74 34 138 1 205 -32 67 -51 89 -67 79 -19 -12
-310 -258 -486 -412 l-153 -134 3 -61 c2 -49 0 -62 -12 -64 -10 -2 -60 50
-130 134 -63 76 -141 166 -172 200 -32 34 -58 69 -58 77 0 22 28 27 67 11 50
-21 59 -20 117 22 121 88 606 491 606 503 0 12 -75 77 -107 93 -52 27 -91 29
-169 11 -78 -19 -106 -14 -111 17 -3 13 295 185 324 188 6 1 23 -19 38 -44z
m4468 -379 c87 -2 163 -8 168 -13 12 -12 -108 -127 -194 -185 -154 -105 -291
-146 -527 -160 -238 -13 -236 -14 -288 19 -81 50 -133 154 -118 235 8 45 52
91 98 105 31 9 446 9 861 -1z m1953 -124 c174 -61 298 -189 360 -372 30 -87
25 -252 -10 -349 -131 -369 -557 -525 -870 -321 -368 240 -325 803 76 1004 98
48 165 65 273 65 74 1 105 -4 171 -27z m-5790 -259 c176 -205 335 -405 330
-418 -6 -18 -22 -19 -64 -4 -46 16 -66 -1 -102 -88 -36 -87 -80 -207 -76 -210
5 -5 212 38 258 53 58 19 73 37 73 88 0 28 5 41 15 43 14 2 223 -238 236 -271
10 -27 -30 -37 -78 -20 -66 25 -190 22 -383 -10 -93 -15 -185 -34 -204 -42
-54 -23 -150 -96 -244 -188 l-89 -86 4 -62 c3 -57 1 -63 -17 -63 -11 0 -37 23
-65 56 -25 31 -101 123 -169 204 -115 136 -123 149 -107 161 16 11 23 11 47
-1 59 -31 83 -20 255 121 56 46 113 96 127 113 38 46 89 161 141 318 40 123
46 153 46 225 0 110 20 134 66 81z m4442 -116 c22 -13 8 -30 -473 -593 -273
-318 -507 -590 -520 -603 l-23 -24 -49 28 c-114 67 -243 186 -281 261 -52 104
-33 193 61 291 68 71 137 119 307 213 63 35 144 82 180 105 132 84 323 196
403 237 167 84 332 120 395 85z m-1740 -288 c54 -31 92 -78 92 -115 0 -68
-113 -144 -215 -146 -93 -1 -122 8 -134 44 -27 77 -3 179 53 223 47 38 133 35
204 -6z m-598 -24 c128 -39 133 -112 12 -174 -111 -57 -215 -81 -345 -81 -264
1 -420 112 -270 192 59 31 99 44 211 69 108 23 306 20 392 -6z m2894 -260
c162 -34 316 -147 382 -279 60 -122 66 -266 16 -379 -32 -72 -407 -554 -496
-636 -34 -32 -57 -16 -49 35 5 31 1 39 -38 76 -67 62 -400 344 -529 447 l-115
92 -50 -5 c-63 -7 -85 5 -67 34 39 64 362 438 415 481 154 125 345 174 531
134z m-2957 -171 c266 -46 318 -148 130 -258 -37 -22 -48 -24 -78 -16 -19 6
-139 24 -268 40 -327 42 -431 68 -431 109 0 43 161 129 264 142 80 10 280 1
383 -17z m590 -58 c55 -26 69 -49 54 -87 -17 -45 -97 -99 -168 -114 -31 -6
-32 -6 -38 40 -10 61 -2 150 14 169 19 23 78 19 138 -8z m-780 -321 c390 -10
542 -27 690 -76 84 -28 177 -89 215 -144 18 -25 36 -45 41 -45 4 0 25 13 45
30 84 67 198 79 297 31 85 -42 102 -57 89 -79 -39 -60 -213 -96 -469 -95 -438
1 -845 99 -1053 255 -71 53 -143 152 -98 135 8 -3 117 -9 243 -12z m-877 -117
c156 -37 326 -174 394 -319 46 -97 66 -177 66 -264 0 -208 -116 -397 -300
-489 -113 -57 -177 -70 -310 -64 -117 6 -172 23 -268 85 -142 91 -251 258
-274 421 -42 306 162 588 465 642 57 10 158 5 227 -12z m3087 -199 l168 -80
-24 -20 c-21 -17 -33 -19 -116 -13 -89 7 -96 6 -157 -23 -67 -32 -148 -105
-168 -154 -7 -16 -9 -40 -6 -54 7 -26 70 -94 115 -123 23 -16 25 -15 54 18 69
82 80 120 52 187 -30 70 -17 78 61 37 86 -45 283 -165 295 -180 18 -22 -13
-28 -75 -16 -91 18 -165 -12 -233 -95 l-38 -46 65 -59 c86 -78 217 -181 257
-202 77 -39 144 1 204 121 33 65 34 73 34 178 -1 97 -4 118 -28 177 -29 69
-32 118 -10 125 11 4 90 -111 231 -333 l32 -51 -76 -74 c-83 -81 -185 -200
-374 -441 -108 -138 -125 -156 -142 -147 -16 9 -18 17 -13 53 l7 42 -99 85
c-255 220 -423 354 -550 440 -66 45 -79 50 -120 47 -29 -2 -47 1 -50 9 -2 6
31 51 74 100 268 299 433 511 433 555 0 10 6 18 14 18 8 0 90 -36 183 -81z
m-1257 -200 c118 -6 219 -16 224 -20 16 -14 -84 -101 -156 -137 -37 -18 -96
-40 -132 -49 -36 -10 -66 -20 -66 -23 0 -7 41 -38 112 -87 l48 -31 -48 -42
c-26 -23 -69 -54 -97 -68 -44 -24 -62 -27 -145 -27 -80 0 -103 4 -143 24 -58
28 -157 123 -136 129 256 80 217 180 -109 278 -51 15 -89 31 -84 36 27 27 388
35 732 17z m-865 -614 c241 -306 351 -427 408 -448 11 -4 15 -12 11 -19 -28
-46 -218 -298 -224 -298 -24 0 -27 35 -8 89 32 89 23 205 -22 294 -37 74 -88
127 -121 127 -34 0 -82 -26 -134 -73 l-50 -44 48 -57 c27 -31 58 -61 69 -67
20 -11 67 -8 131 7 17 4 27 2 27 -5 0 -17 -282 -341 -292 -335 -15 9 -8 52 14
90 31 52 29 115 -6 183 -37 72 -70 105 -93 92 -27 -14 -249 -205 -320 -274
-61 -60 -63 -63 -63 -114 0 -57 -11 -72 -40 -51 -11 7 -85 93 -165 192 -163
200 -165 206 -65 206 53 0 63 4 121 47 162 119 407 321 512 422 75 72 100 112
91 146 -4 18 -1 32 12 46 21 24 7 38 159 -156z m1426 -11 c175 -120 177 -128
27 -130 -125 -2 -189 -20 -249 -72 -50 -43 -69 -80 -69 -132 0 -33 6 -48 30
-72 27 -26 36 -30 68 -25 20 3 89 35 152 71 236 136 390 171 524 118 48 -19
119 -112 141 -185 37 -125 3 -280 -93 -426 -20 -31 -98 -117 -174 -191 -104
-102 -139 -143 -144 -167 -4 -18 -9 -33 -11 -33 -4 0 -337 238 -371 265 -1 1
0 10 4 19 9 23 43 20 110 -11 84 -39 186 -39 265 0 81 39 143 98 178 169 47
94 39 163 -24 193 -75 35 -133 16 -335 -110 -126 -78 -180 -98 -260 -98 -80 0
-142 27 -205 89 -69 70 -90 122 -90 230 0 86 2 95 40 170 33 68 59 99 176 214
97 96 139 146 148 173 7 20 15 37 17 37 3 0 68 -43 145 -96z m-611 -1170 c113
-184 206 -338 208 -343 2 -7 -390 -654 -412 -678 -8 -9 -62 70 -221 329 -116
187 -209 345 -207 350 5 19 415 678 421 678 3 -1 98 -151 211 -336z"/>
<path d="M9650 7753 c13 -21 45 -77 72 -126 28 -48 55 -90 60 -93 5 -3 25 9
45 27 20 17 64 44 97 60 48 23 56 30 40 35 -10 4 -86 36 -168 71 -83 35 -154
63 -159 63 -5 0 1 -17 13 -37z"/>
<path d="M8219 6261 c-73 -23 -129 -95 -129 -165 0 -122 171 -304 380 -405
145 -71 238 -75 316 -16 101 77 81 214 -49 346 -167 168 -399 276 -518 240z"/>
<path d="M7455 5275 c-72 -25 -175 -89 -183 -113 -2 -8 20 -37 49 -66 124
-119 471 -393 555 -438 l42 -22 33 26 c52 39 102 130 107 193 12 148 -115 309
-322 406 -104 49 -173 52 -281 14z"/>
<path d="M3775 4636 c-121 -58 -233 -158 -316 -284 -60 -91 -72 -128 -67 -207
7 -108 68 -165 177 -165 50 0 73 7 143 42 119 60 257 200 317 319 40 79 42 88
39 155 -3 60 -8 77 -32 108 -57 76 -149 87 -261 32z"/>
</g>
</svg>
