<svg xmlns="http://www.w3.org/2000/svg" width="228.617" height="39.084" viewBox="0 0 228.61725 39.083523"><path d="M4.848 37.091C2.502 36.027.341 34.527.047 33.758c-.498-1.297 3.136-8.687 4.27-8.687.28 0 1.845 1.125 3.479 2.5 3.521 2.963 7.352 3.237 8.75.626 1.264-2.361-1.021-4.603-5.707-5.6-4.644-.986-9.041-5.027-9.785-8.989C.324 9.715 2.73 3.804 5.966 1.537 9.882-1.206 25.613.177 25.613 3.264c0 .48-.66 2.451-1.467 4.382l-1.466 3.51-3.141-1.623c-3.72-1.924-8.22-1.213-7.742 1.223.188.957 2.554 2.342 5.816 3.405 7.018 2.286 10.002 5.633 9.997 11.216C27.6 36.5 16.326 42.301 4.848 37.091zm107.126-.986c-8.63-4.95-12.414-15.183-8.808-23.816 1.806-4.322 5.8-8.797 9.648-10.807 4.42-2.31 15.584-1.838 19.973.844 13.516 8.259 12.885 27.121-1.145 34.23-6.923 3.509-13.007 3.37-19.668-.45zm15.378-8.563c4.7-3.293 4.7-13.649 0-16.941-2.601-1.822-7.61-1.948-9.825-.248-4.602 3.533-5.391 12.332-1.46 16.264 2.86 2.858 7.93 3.274 11.285.925zm-93.739-8.47v-19h24v9h-13v6h12v9h-6c-5.733 0-6 .11-6 2.5 0 2.41.234 2.5 6.5 2.5h6.5v9h-24zm30 0v-19l8.75.005c10.421.007 15.093 1.15 19.355 4.736 4.03 3.39 5.895 7.873 5.895 14.162 0 13.336-7.247 19.036-24.25 19.075l-9.75.022zm20.23 7.277c3.82-3.426 3.005-13.011-1.301-15.316-.989-.529-3.177-.962-4.863-.962h-3.066v19.222l3.75-.695c2.063-.383 4.529-1.395 5.48-2.249zm64.77-7.278v-19h5.312c5.92 0 4.618-1.17 15.407 13.855l5.281 7.355V.071h11v38h-10.596l-7.452-10.25-7.452-10.25-.285 10.25-.285 10.25h-10.93zm41.047 18.3c.026-.44 2.839-8.9 6.25-18.8l6.203-18 7-.276 7-.275 6.254 18.275c3.44 10.052 6.252 18.614 6.25 19.026-.002.413-2.435.75-5.406.75-5.122 0-5.457-.158-6.464-3.046-1.058-3.034-1.09-3.046-7.806-2.75-6.265.275-6.786.474-7.327 2.796-.526 2.259-1.134 2.53-6.292 2.8-3.14.165-5.688-.06-5.662-.5zm21.627-20.897l-2.145-6.598-1.622 5.462c-.891 3.004-1.937 5.973-2.323 6.598-.484.782.687 1.135 3.767 1.135h4.468z" fill="#fefefe"/></svg>