<?xml version="1.0" encoding="UTF-8" standalone="no"?>
<svg
   xmlns:x="adobe:ns:meta/"
   xmlns:dc="http://purl.org/dc/elements/1.1/"
   xmlns:cc="http://creativecommons.org/ns#"
   xmlns:rdf="http://www.w3.org/1999/02/22-rdf-syntax-ns#"
   xmlns:svg="http://www.w3.org/2000/svg"
   xmlns="http://www.w3.org/2000/svg"
   xmlns:sodipodi="http://sodipodi.sourceforge.net/DTD/sodipodi-0.dtd"
   xmlns:inkscape="http://www.inkscape.org/namespaces/inkscape"
   width="228.61725"
   height="39.083523"
   viewBox="0 0 228.61725 39.083523"
   version="1.1"
   id="svg5"
   sodipodi:docname="intro-text.svg"
   inkscape:version="0.92.1 r15371">
  <defs
     id="defs9" />
  <sodipodi:namedview
     pagecolor="#ffffff"
     bordercolor="#666666"
     borderopacity="1"
     objecttolerance="10"
     gridtolerance="10"
     guidetolerance="10"
     inkscape:pageopacity="0"
     inkscape:pageshadow="2"
     inkscape:window-width="1186"
     inkscape:window-height="884"
     id="namedview7"
     showgrid="false"
     fit-margin-top="0"
     fit-margin-left="0"
     fit-margin-right="0"
     fit-margin-bottom="0"
     inkscape:zoom="1.790393"
     inkscape:cx="119.31193"
     inkscape:cy="-29.117024"
     inkscape:window-x="70"
     inkscape:window-y="19"
     inkscape:window-maximized="0"
     inkscape:current-layer="svg5" />
  <metadata
     id="metadata2">
  <x:xmpmeta
       x:xmptk="Adobe XMP Core 5.6-c138 79.159824, 2016/09/14-01:09:01        ">
      <metadata>
        <rdf:RDF>
          <rdf:Description
             rdf:about="" />
          <cc:Work
             rdf:about="">
            <dc:format>image/svg+xml</dc:format>
            <dc:type
               rdf:resource="http://purl.org/dc/dcmitype/StillImage" />
            <dc:title></dc:title>
          </cc:Work>
        </rdf:RDF>
      </metadata>
    </x:xmpmeta>
<?xpacket end="w"?>  </metadata>
  <path
     style="fill:#fefefe"
     d="M 4.8480407,37.091408 C 2.5021577,36.026625 0.34146669,34.526536 0.04650469,33.757877 -0.45103529,32.46131 3.1826387,25.071302 4.3177027,25.071302 c 0.278777,0 1.843855,1.125 3.477949,2.5 3.5214433,2.963099 7.3527613,3.237135 8.7502693,0.625867 1.263698,-2.361242 -1.021259,-4.603234 -5.706593,-5.59929 C 6.1953287,21.610611 1.7975247,17.570316 1.0542347,13.608243 0.32383069,9.7148525 2.7288927,3.8041645 5.9661517,1.5366945 c 3.915924,-2.74282 19.6471313,-1.35984004 19.6471313,1.72724 0,0.47938 -0.660088,2.45142 -1.466863,4.3823 L 22.679557,11.156934 19.538716,9.5327425 c -3.720344,-1.923868 -8.219761,-1.212977 -7.741877,1.2231825 0.187704,0.956874 2.554036,2.342039 5.816444,3.404736 7.017577,2.285907 10.001237,5.633753 9.996262,11.216405 -0.0099,11.122328 -11.283292,16.92424 -22.7615043,11.714342 z M 111.97422,36.105051 c -8.62951,-4.949413 -12.414142,-15.182775 -8.80789,-23.815868 1.80566,-4.3226195 5.80008,-8.7972785 9.64729,-10.8071585 4.42084,-2.30956004 15.58421,-1.83762004 19.97375,0.8444 13.51593,8.2582475 12.88475,27.1207255 -1.14542,34.2303495 -6.92307,3.508185 -13.00709,3.368449 -19.66773,-0.451723 z m 15.37769,-8.563232 c 4.70051,-3.292367 4.70051,-13.648667 0,-16.941034 -2.60119,-1.8219455 -7.61039,-1.9482195 -9.82529,-0.24768 -4.60145,3.532887 -5.39069,12.33176 -1.45879,16.263652 2.85852,2.858524 7.93009,3.274288 11.28408,0.925062 z M 33.613283,19.071302 V 0.07130446 h 11.999995 12 v 4.50000004 4.499998 h -6.5 -6.5 v 2.9999995 3 h 6 6 v 4.5 4.5 h -6 c -5.73333,0 -6,0.111111 -6,2.5 0,2.410256 0.23334,2.5 6.5,2.5 h 6.5 v 4.5 4.5 h -12 -11.999995 z m 29.999995,0 V 0.07130446 l 8.75,0.006 c 10.42088,0.007 15.09287,1.14988004 19.35493,4.73616004 4.02901,3.390189 5.89507,7.8728215 5.89507,14.1610425 0,13.336295 -7.24713,19.036957 -24.25,19.075256 l -9.75,0.02196 z m 20.23045,7.278098 c 3.81901,-3.426687 3.0043,-13.011729 -1.30185,-15.316315 -0.98841,-0.528981 -3.1767,-0.961783 -4.86285,-0.961783 h -3.06575 v 9.611291 9.611291 l 3.75,-0.695905 c 2.0625,-0.382747 4.5287,-1.394608 5.48045,-2.248579 z M 148.61328,19.071302 V 0.07130446 h 5.31194 c 5.92008,0 4.61804,-1.17088996 15.40697,13.85509054 l 5.28109,7.355093 V 10.676395 0.07130446 h 5.5 5.5 v 18.99999754 19 h -5.29815 -5.29816 l -7.45184,-10.25 -7.45185,-10.25 -0.28498,10.25 -0.28499,10.25 h -5.46501 -5.46502 z m 41.04694,18.299904 c 0.0258,-0.439947 2.83832,-8.899904 6.25001,-18.799904 l 6.20306,-17.99999754 7,-0.27589 7,-0.2759 6.25396,18.27589554 c 3.43968,10.051741 6.25218,18.613392 6.25,19.025892 -0.002,0.4125 -2.43495,0.75 -5.40614,0.75 -5.12167,0 -5.45731,-0.158186 -6.4642,-3.046506 -1.05775,-3.034271 -1.08909,-3.045315 -7.80617,-2.75 -6.2647,0.275427 -6.78557,0.474233 -7.32682,2.796506 -0.52637,2.258509 -1.13412,2.52897 -6.29165,2.799904 -3.13994,0.164947 -5.68787,-0.06005 -5.66205,-0.5 z m 21.62681,-20.897655 -2.14508,-6.5977495 -1.62149,5.4621105 c -0.89182,3.004161 -1.93732,5.973148 -2.32335,6.59775 -0.48379,0.782803 0.68646,1.13564 3.76657,1.13564 h 4.46843 z"
     id="path3694"
     inkscape:connector-curvature="0" />
</svg>
